<svg xmlns="http://www.w3.org/2000/svg" xmlns:xlink="http://www.w3.org/1999/xlink" fill="none" version="1.1" width="331" height="326" viewBox="0 0 331 326"><g><g><path d="" fill="#ECEEEE" fill-opacity="0"/></g><g><path d="M134.9110796875,52.94344315625C135.4910796875,52.94081115625,136.0711796875,52.93817915625,136.6687796875,52.93546815625C137.31027968749999,52.93489415625,137.9516796875,52.93437515625,138.5931796875,52.93390615625C139.2697796875,52.93177215625,139.9464796875,52.92945615625,140.6230796875,52.92697115625C142.4602796875,52.92093005625,144.2973796875,52.91795305625,146.1345796875,52.91590405625C147.28287968749999,52.91455195625,148.4312796875,52.91265965625,149.5796796875,52.91060135625C153.1743796875,52.90430025625,156.7690796875,52.89984345625,160.3637796875,52.89806305625C164.5101796875,52.89599795625,168.6564796875,52.88790935625,172.8028796875,52.87455495625C176.0101796875,52.86458465625,179.2173796875,52.85994115625,182.4245796875,52.85932535625C184.3391796875,52.85884275625,186.25367968749998,52.85612975625,188.16817968750001,52.84788505625C189.9697796875,52.84027745625,191.7712796875,52.83930015625,193.5728796875,52.84333975625C194.2325796875,52.84369425625,194.8923796875,52.84170085625,195.5520796875,52.83713635625C201.8182796875,52.79633745625,201.8182796875,52.79633745625,204.5682796875,54.39099015625C206.7517796875,56.64178015625,206.9803796875,58.30219015625,206.9677796875,61.33926015625C206.96677968749998,61.81207015625,206.96677968749998,61.81207015625,206.9657796875,62.29443015625C206.9630796875,63.29946015625,206.9571796875,64.30446015625,206.9511796875,65.30946015625C206.94887968749998,65.99156015625,206.9466796875,66.67366015625,206.9447796875,67.35576015625C206.9395796875,69.02636015625,206.9314796875,70.69696015625,206.92177968750002,72.36756015625C207.3384796875,72.35666015625,207.3384796875,72.35666015625,207.7635796875,72.34556015625C209.02247968749998,72.31686015625,210.28137968750002,72.29886015625,211.54057968749999,72.28116015625C212.1962796875,72.26376015625,212.1962796875,72.26376015625,212.8653796875,72.24606015625C213.28547968750001,72.24156015625,213.70567968749998,72.23706015625,214.1385796875,72.23256015625C214.5255796875,72.22526015625,214.9126796875,72.21806015625,215.3113796875,72.21056015625C216.6111796875,72.40966015625,216.9431796875,72.74516015625,217.7481796875,73.75036015625C217.93017968750002,74.74726015625001,217.93017968750002,74.74726015625001,217.9381796875,75.91646015625C217.9471796875,76.57396015625,217.9471796875,76.57396015625,217.9561796875,77.24486015625C217.9551796875,77.71736015625,217.95317968749998,78.18986015625,217.9521796875,78.67666015625C217.95417968750002,79.16246015625,217.9571796875,79.64836015624999,217.9591796875,80.14896015625C217.9621796875,81.17646015625,217.9621796875,82.20396015625,217.9581796875,83.23156015625C217.95417968750002,84.80686015625,217.9671796875,86.38136015625,217.98217968749998,87.95656015624999C217.9831796875,88.95406015625,217.9831796875,89.95156015625,217.9811796875,90.94906015625C217.98917968749998,91.65786015625,217.98917968749998,91.65786015625,217.9971796875,92.38086015625001C217.9931796875,92.81926015625001,217.9881796875,93.25766015625,217.9841796875,93.70936015625C217.9841796875,94.09516015625,217.9841796875,94.48096015625,217.9841796875,94.87846015625C217.7481796875,95.87536015625,217.7481796875,95.87536015625,216.8561796875,96.69236015625C215.70417968750002,97.34996015625,215.0487796875,97.41946015625,213.7248796875,97.39326015625C213.3274796875,97.38876015625,212.93007968749998,97.38426015625001,212.5205796875,97.37976015625C212.1097796875,97.36816015625,211.6989796875,97.35656015625,211.2757796875,97.34456015625C210.64867968750002,97.33526015625,210.64867968750002,97.33526015625,210.00897968750002,97.32566015625C208.9795796875,97.30946015625,207.9508796875,97.28676015625,206.92177968750002,97.25816015625C206.93167968749998,97.62066015625,206.94147968750002,97.98326015625,206.95167968750002,98.35676015625C206.9908796875,100.00706015624999,207.0153796875,101.65736015625001,207.0394796875,103.30796015625C207.0552796875,103.87836015625,207.0709796875,104.44876015625,207.0872796875,105.03646015625C207.1392796875,109.77606015625,207.1392796875,109.77606015625,206.12007968749998,111.39956015625C204.2329796875,113.26646015624999,202.9046796875,113.93306015625001,200.21457968750002,114.00896015625C199.21117968750002,114.00866015625,198.2076796875,114.00096015625,197.2043796875,113.98696015625C196.67487968749998,113.98496015625,196.1453796875,113.98306015624999,195.59977968750002,113.98106015625001C193.9115796875,113.97326015625,192.2235796875,113.95596015625,190.53547968750001,113.93836015625C189.3896796875,113.93146015625,188.2437796875,113.92506015625,187.09797968750001,113.91946015625C184.2916796875,113.90536015625,181.4859796875,113.87836015625,178.6795796875,113.85196015625C178.6795796875,117.35046015625,178.6795796875,120.84896015625,178.6795796875,124.45346015625C179.7377796875,124.41546015625,180.7959796875,124.37746015625,181.8862796875,124.33826015625C187.8579796875,124.28576015625,192.16047968750001,126.51036015625,196.5662796875,130.44566015625C207.72137968750002,142.67016015625,202.6854796875,159.58166015625,202.6854796875,175.15666015624998C178.9196796875,175.15666015624998,155.1538796875,175.15666015624998,130.6678796875,175.15666015624998C130.6678796875,136.85766015625,130.6678796875,136.85766015625,137.2577796875,129.98476015625C142.6029796875,125.32006015625,147.6363796875,124.17786015625,154.6737796875,124.45346015625C154.6737796875,120.95496015625,154.6737796875,117.45646015625,154.6737796875,113.85196015625C152.9395796875,113.87866015624999,151.2054796875,113.90536015625,149.4187796875,113.93296015625C147.7362796875,113.95096015625,146.0538796875,113.96496015625,144.3713796875,113.97856015625C143.2034796875,113.99006015625,142.0355796875,114.00586015625001,140.8677796875,114.02576015625C139.1874796875,114.05376015625001,137.5076796875,114.06686015625,135.8272796875,114.07696015625001C135.3063796875,114.08886015625,134.7855796875,114.10076015625,134.2489796875,114.11306015625C130.1949796875,114.11446015625,130.1949796875,114.11446015625,128.4920796875,112.82956015625C126.6378796875,110.70486015624999,126.3118796875,109.15716015625,126.3395796875,106.39586015625C126.3426796875,105.86266015625,126.3456796875,105.32936015625,126.3487796875,104.77996015625C126.3566796875,104.22766015625001,126.3645796875,103.67536015625001,126.3726796875,103.10636015624999C126.3769796875,102.54516015625,126.3811796875,101.98396015624999,126.3855796875,101.40576015625C126.3966796875,100.02306015625,126.4121796875,98.64066015625,126.4315796875,97.25816015625C126.1537796875,97.26546015625,125.8759796875,97.27266015625,125.5897796875,97.28016015624999C124.3308296875,97.30886015625,123.0719496875,97.32686015625,121.8127796875,97.34456015625C121.3756096875,97.35616015625,120.9384396875,97.36776015625,120.4880096875,97.37976015625C120.0678296875,97.38416015625,119.6476396875,97.38866015625,119.2147196875,97.39326015625C118.82771968750001,97.40046015625,118.4407196875,97.40766015625,118.0419896875,97.41516015625001C116.7424596875,97.21606015625,116.4095796875,96.88076015625,115.6053876875,95.87536015625C115.4260725875,94.87846015625,115.4260725875,94.87846015625,115.4226681875,93.70936015625C115.4182168875,93.27096015625,115.4137656275,92.83256015625,115.4091796875,92.38086015625001C115.4120382675,91.90836015625,115.4148968475,91.43586015625,115.4178416175,90.94906015625C115.4164913275,90.46326015625,115.4151392475,89.97736015625,115.4137476675,89.47686015625C115.4127870275,88.44926015625,115.4153942275,87.42176015625,115.4212891875,86.39416015625C115.4288449875,84.81896015625,115.4213627875,83.24436015625,115.4123255575,81.66916015625C115.4132592675,80.67166015625,115.4150674275,79.67416015625,115.4178416175,78.67666015625C115.4149830375,78.20416015625,115.4121244575,77.73166015625,115.4091796875,77.24486015625C115.4158556875,76.58726015625,115.4158556875,76.58726015625,115.4226681875,75.91646015625C115.4237921875,75.53056015625,115.4249144875,75.14476015625,115.4260725875,74.74726015625001C115.6462996875,73.52286015625,116.0182136875,73.11286015625001,117.0174996875,72.36756015625C118.0419896875,72.21056015625,118.0419896875,72.21056015625,119.2147196875,72.23256015625C119.6349096875,72.23696015625,120.0550896875,72.24146015625,120.4880096875,72.24606015625C121.1437796875,72.26336015625,121.1437796875,72.26336015625,121.8127796875,72.28116015625C122.2554196875,72.28736015625,122.6980596875,72.29356015625,123.1541096875,72.30006015625C124.2468596875,72.31636015625,125.3390696875,72.33906015625,126.4315796875,72.36756015625C126.4216796875,71.93526015625,126.4118796875,71.50286015625,126.4016796875,71.05746015625C126.3694796875,69.44406015625,126.3459796875,67.83116015625001,126.3281796875,66.21756015625C126.3186796875,65.52106015625,126.3058796875,64.82446015625,126.2894796875,64.12806015625C126.2664796875,63.12336015625,126.2559796875,62.11912015625,126.2476796875,61.11420015625C126.2378796875,60.51074015625,126.2279796875,59.90727015625,126.2177796875,59.28553015625C126.5139796875,56.97474015625,127.5122796875,55.56373015625,129.2557796875,54.01648015625C131.0818796875,52.95473415625,132.8178796875,52.94913515625,134.9110796875,52.94344315625Z" fill="#FFFFFF" fill-opacity="1"/></g><g><path d="M139.140625,66.375C157.314425,66.375,175.488325,66.375,194.21292499999998,66.375C194.21292499999998,77.9353,194.21292499999998,89.4956,194.21292499999998,101.4062C176.039025,101.4062,157.865225,101.4062,139.140625,101.4062C139.140625,89.8459,139.140625,78.2856,139.140625,66.375Z" fill="#000000" fill-opacity="1"/></g><g><path d="M184.44568125,76.8040510625C186.68618125,78.0152640625,187.76238125,79.6911340625,188.56438125,82.0472140625C188.81138125,85.1920440625,188.11338125,87.3556140625,186.06378125,89.7967140625C184.00898125,91.4345140625,182.29017125000001,91.8301140625,179.67984125,91.7557140625C176.91172125,91.4117140625,175.25659125,90.1048140625,173.50186025,88.0394140625C172.17123425,85.6939640625,172.45768625,83.2185240625,173.03115725,80.6644040625C174.09381125,78.4166940625,175.41054125,77.3515640625,177.67199125,76.3755240625C180.11504125,75.5984450625,182.10643125,75.7944260625,184.44568125,76.8040510625Z" fill="#FFFFFF" fill-opacity="1"/></g><g><path d="M155.61718984375,76.386253C157.95138984375,77.610585,159.48608984375,79.129295,160.32238984375,81.586205C160.56518984375,83.850635,160.59278984375,85.655835,159.55748984375,87.722475C157.74028984375,89.736075,156.31328984375,91.295275,153.52660984375,91.726875C151.38498984375,91.839475,149.94464984375,91.444075,148.08410984375,90.343975C145.94030984375,88.292075,144.72105274375,86.754675,144.64208984375,83.775655C144.66714194375,81.429775,145.02546984375,80.146315,146.67199984375,78.359645C149.24999984375,76.081421,152.24370984375,75.201374,155.61718984375,76.386253Z" fill="#FFFFFF" fill-opacity="1"/></g><g><path d="M58.5,269.2266Q58.7109,267.4688,59.8008,265.1836Q60.8906,262.8984,62.2266,262.8281Q77.6953,262.0547,98.6484,262.0547Q96.6094,283.0078,93.0234,297.9844Q92.1797,299.1094,89.5078,301.1836Q86.8359,303.2578,85.7109,303.8203Q81.7031,305.0156,73.4766,306.2109Q65.25,307.4062,57.375,307.4062Q62.7188,304.5234,68.5195,295.6289Q74.3203,286.7344,74.3203,281.84770000000003Q74.3203,276.9609,69.1875,273.0938Q64.0547,269.2266,58.5,269.2266ZM88.8047,252.9141Q86.1328,239.83594,82.6172,231.15234Q79.1016,222.4688,72.4922,214.9453Q72.6328,213.6797,74.8828,211.9922Q77.1328,210.3047,78.6797,210.3047Q90.9459,211.6406,101.461,215.3672Q101.461,219.375,99.7987,230.48438Q98.1376,241.59375,96.5819,248.2031Q96.2996,249.3281,93.4354,251.1211Q90.5724,252.9141,88.8047,252.9141ZM53.0156,302.625Q53.0156,303.6797,50.8008,305.543Q48.5859,307.4062,46.8281,307.4062Q31.7109,304.6641,21.1641,293.625Q16.0312,288.2109,13.043,280.65229999999997Q10.0547,273.0938,10.0547,264.5508Q10.0547,256.0078,12.1641,248.0273Q14.2734,240.04688,18.8086,232.83984Q23.3438,225.6328,29.7773,220.2188Q36.2109,214.8047,45.457,211.6406Q54.7031,208.4766,65.6719,208.4766Q67.2891,208.4766,68.2734,208.5469Q58.0078,217.4062,52.2422,234.10547Q46.4766,250.8047,46.4766,270.1055Q46.4766,289.4062,53.0156,302.625ZM168.82,306L136.055,306Q146.391,268.6641,150.75,214.875Q150.75,213.9609,153.035,212.1328Q155.32,210.3047,156.867,210.3047L188.227,210.3047Q179.156,248.4844,175.008,301.3594Q175.008,302.2734,172.758,304.1367Q170.508,306,168.82,306ZM201.727,254.3203Q201.727,244.6875,198.668,232.94531Q195.609,221.2031,192.094,215.9297Q192.516,212.6953,194.203,210.3047L216.07,210.3047Q213.82,231.46875,210.094,249.6797Q209.812,250.7344,206.684,252.5273Q203.555,254.3203,201.727,254.3203ZM116.086,254.25Q116.648,246.0234,118.758,232.62891Q120.867,219.2344,121.922,215.2969Q122.414,213.8906,124.348,212.0977Q126.281,210.3047,127.547,210.3047L148.922,210.3047Q141.75,218.8828,137.918,226.125Q134.086,233.36719,130.535,240.15234Q126.984,246.9375,125.086,250.4531Q124.664,251.2266,121.184,252.7383Q117.703,254.25,116.086,254.25ZM304.664,301.3594Q304.664,302.2734,302.414,304.1367Q300.164,306,298.547,306L280.406,306Q272.461,291.5859,259.207,273.1641Q245.953,254.7422,235.055,242.29688Q235.969,234.77344,237.867,214.875Q238.078,213.8906,240.293,212.0977Q242.508,210.3047,243.984,210.3047L262.336,210.3047Q271.688,226.75781,282.34,241.45312Q292.992,256.1484,307.195,273.5156Q305.367,290.3906,304.664,301.3594ZM303.469,261.2109Q300.094,243.84375,297.316,233.89453Q294.539,223.9453,289.828,214.875Q289.828,213.9609,292.113,212.1328Q294.398,210.3047,296.086,210.3047L318.445,210.3047Q313.734,230.625,309.656,256.5Q309.656,257.4844,307.406,259.3477Q305.156,261.2109,303.469,261.2109ZM238.852,256.0078Q240.68,270.7734,243.844,280.72270000000003Q247.008,290.6719,252.633,301.3594Q252.633,302.2734,250.383,304.1367Q248.133,306,246.445,306L224.086,306Q228.797,285.5391,232.664,260.6484Q232.664,259.7344,234.949,257.8711Q237.234,256.0078,238.852,256.0078Z" fill="#FFFFFF" fill-opacity="1"/></g></g></svg>